<?xml version="1.0" encoding="UTF-8" standalone="no"?>
<!-- Created with Inkscape (http://www.inkscape.org/) -->

<svg
   xmlns:dc="http://purl.org/dc/elements/1.1/"
   xmlns:cc="http://creativecommons.org/ns#"
   xmlns:rdf="http://www.w3.org/1999/02/22-rdf-syntax-ns#"
   xmlns:svg="http://www.w3.org/2000/svg"
   xmlns="http://www.w3.org/2000/svg"
   xmlns:xlink="http://www.w3.org/1999/xlink"
   xmlns:sodipodi="http://sodipodi.sourceforge.net/DTD/sodipodi-0.dtd"
   xmlns:inkscape="http://www.inkscape.org/namespaces/inkscape"
   width="63.588436mm"
   height="59.392723mm"
   viewBox="0 0 63.588436 59.392723"
   version="1.1"
   id="svg135"
   inkscape:version="0.92.2 (5c3e80d, 2017-08-06)"
   sodipodi:docname="clock.svg">
  <defs
     id="defs129">
    <filter
       id="imagebot_32">
      <feGaussianBlur
         id="imagebot_54"
         stdDeviation="5.25714" />
    </filter>
    <filter
       id="imagebot_29">
      <feGaussianBlur
         id="imagebot_53"
         stdDeviation="5.29855" />
    </filter>
    <filter
       id="imagebot_35">
      <feGaussianBlur
         id="imagebot_52"
         stdDeviation="5.25714" />
    </filter>
    <filter
       id="imagebot_10">
      <feGaussianBlur
         id="imagebot_51"
         stdDeviation="1.04638" />
    </filter>
    <linearGradient
       id="imagebot_41"
       y2="0.5"
       x2="1.0028501"
       y1="1.03689"
       x1="0.50001001">
      <stop
         id="imagebot_50"
         offset="0"
         stop-color="#ffffff" />
      <stop
         id="imagebot_49"
         offset="1"
         stop-opacity="0"
         stop-color="#ffffff" />
    </linearGradient>
    <radialGradient
       id="imagebot_40"
       gradientUnits="userSpaceOnUse"
       cy="332.35999"
       cx="-485.70999"
       r="262.85999">
      <stop
         id="imagebot_48"
         offset="0"
         stop-color="#f0f7f9" />
      <stop
         id="imagebot_47"
         offset="1"
         stop-color="#cccccc" />
    </radialGradient>
    <radialGradient
       id="imagebot_37"
       gradientUnits="userSpaceOnUse"
       cy="353"
       cx="-257.14001"
       gradientTransform="matrix(1.6357,-0.014127,0.0086362,0.99996,160.42,-3.6194)"
       r="52.319">
      <stop
         id="imagebot_46"
         offset="0"
         stop-color="#ffffff" />
      <stop
         id="imagebot_45"
         offset="1"
         stop-opacity="0"
         stop-color="#ffffff" />
    </radialGradient>
    <radialGradient
       id="imagebot_36"
       gradientUnits="userSpaceOnUse"
       cy="219.21001"
       cx="-260.01001"
       gradientTransform="matrix(-0.99219,0.12477,-0.075183,-0.59784,-502.2,415.88)"
       r="37.015999">
      <stop
         id="imagebot_44"
         offset="0"
         stop-color="#ffffff" />
      <stop
         id="imagebot_43"
         offset="1"
         stop-opacity="0"
         stop-color="#ffffff" />
    </radialGradient>
    <linearGradient
       xlink:href="#imagebot_41"
       id="imagebot_30"
       x1="-485.75534"
       y1="671.06372"
       x2="-168.50415"
       y2="332.32977"
       gradientTransform="scale(0.99990249,1.0000975)"
       gradientUnits="userSpaceOnUse" />
    <radialGradient
       xlink:href="#imagebot_40"
       id="imagebot_27"
       gradientUnits="userSpaceOnUse"
       cx="-485.70999"
       cy="332.35999"
       r="262.85999" />
    <radialGradient
       xlink:href="#imagebot_37"
       id="imagebot_7"
       gradientUnits="userSpaceOnUse"
       gradientTransform="matrix(1.6357,-0.014127,0.0086362,0.99996,160.42,-3.6194)"
       cx="-257.14001"
       cy="353"
       r="52.319" />
    <radialGradient
       xlink:href="#imagebot_36"
       id="imagebot_5"
       gradientUnits="userSpaceOnUse"
       gradientTransform="matrix(-0.99219,0.12477,-0.075183,-0.59784,-502.2,415.88)"
       cx="-260.01001"
       cy="219.21001"
       r="37.015999" />
  </defs>
  <sodipodi:namedview
     id="base"
     pagecolor="#ffffff"
     bordercolor="#666666"
     borderopacity="1.0"
     inkscape:pageopacity="0.0"
     inkscape:pageshadow="2"
     inkscape:zoom="0.35"
     inkscape:cx="412.60784"
     inkscape:cy="-342.80539"
     inkscape:document-units="mm"
     inkscape:current-layer="layer1"
     showgrid="true"
     inkscape:snap-global="false"
     inkscape:window-width="1920"
     inkscape:window-height="1016"
     inkscape:window-x="0"
     inkscape:window-y="27"
     inkscape:window-maximized="1">
    <inkscape:grid
       type="xygrid"
       id="grid137"
       originx="3.3358248"
       originy="-238.86725" />
  </sodipodi:namedview>
  <metadata
     id="metadata132">
    <rdf:RDF>
      <cc:Work
         rdf:about="">
        <dc:format>image/svg+xml</dc:format>
        <dc:type
           rdf:resource="http://purl.org/dc/dcmitype/StillImage" />
        <dc:title />
      </cc:Work>
    </rdf:RDF>
  </metadata>
  <g
     inkscape:label="Layer 1"
     inkscape:groupmode="layer"
     id="layer1"
     transform="translate(3.3358248,1.2599807)">
    <g
       id="imagebot_3"
       label="Layer 1"
       transform="matrix(0.13835501,0,0,0.12920082,2.7191762,3.6619502)">
      <path
         id="imagebot_34"
         d="m -222.85715,332.36218 a 262.85715,262.85715 0 1 1 -525.71429,0 262.85715,262.85715 0 1 1 525.71429,0 z"
         transform="matrix(0.728538,0,0,0.728538,545.36265,-44.53616)"
         label="Layer 1"
         inkscape:connector-curvature="0"
         style="fill:#000000;fill-rule:evenodd;filter:url(#imagebot_35)" />
      <path
         id="imagebot_33"
         d="m -222.85715,332.36218 a 262.85715,262.85715 0 1 1 -525.71429,0 262.85715,262.85715 0 1 1 525.71429,0 z"
         transform="matrix(0.728538,0,0,0.728538,545.36265,-50.57176)"
         label="Layer 1"
         inkscape:connector-curvature="0"
         style="fill:#333333;fill-rule:evenodd" />
      <path
         id="imagebot_31"
         d="m -222.85715,332.36218 a 262.85715,262.85715 0 1 1 -525.71429,0 262.85715,262.85715 0 1 1 525.71429,0 z"
         transform="matrix(0.676621,0,0,0.676621,520.15065,-34.04986)"
         label="Layer 1"
         inkscape:connector-curvature="0"
         style="fill:#000000;fill-rule:evenodd;filter:url(#imagebot_32)" />
      <path
         id="imagebot_28"
         d="m -222.85715,332.36218 a 262.85715,262.85715 0 1 1 -525.71429,0 262.85715,262.85715 0 1 1 525.71429,0 z"
         transform="matrix(0.654909,0,0,0.654909,509.59765,-26.82556)"
         label="Layer 1"
         inkscape:connector-curvature="0"
         style="fill:none;stroke:url(#imagebot_30);stroke-width:4.14109993;stroke-linecap:round;filter:url(#imagebot_29)" />
      <path
         id="imagebot_26"
         d="m -222.85715,332.36218 a 262.85715,262.85715 0 1 1 -525.71429,0 262.85715,262.85715 0 1 1 525.71429,0 z"
         transform="matrix(0.654909,0,0,0.654909,509.59765,-26.82556)"
         label="Layer 1"
         inkscape:connector-curvature="0"
         style="fill:url(#imagebot_27);fill-rule:evenodd" />
      <path
         d="m 341.15087,609.27667 139.27022,4.77122 -0.0131,-2.24692 24.21897,2.278 -0.0643,-11.10191 -24.18938,2.55159 -0.0135,-2.58793 -139.2086,6.33594 z"
         id="imagebot_25"
         label="Layer 1"
         transform="rotate(15.6657,1854.0526,-680.31807)"
         inkscape:connector-curvature="0"
         style="fill:#000000;fill-rule:evenodd" />
      <path
         d="m 399.47938,669.48978 85.64808,-59.28374 -1.49696,-1.9163 15.85424,-9.07048 -7.4108,-9.48418 -12.63208,13.19482 -1.72516,-2.20803 -78.23731,68.7679 z"
         id="imagebot_24"
         label="Layer 1"
         transform="translate(-286.85235,-418.32406)"
         inkscape:connector-curvature="0"
         style="fill:#000000;fill-rule:evenodd" />
      <path
         id="imagebot_23"
         d="m 473.53913,450.32245 1.20183,21.31609 h 7.25065 l 1.21504,-21.31609 z m -9.77318,0.66035 -4.01493,0.43583 2.58857,15.80878 2.20557,-0.22452 z m 29.20067,0 -0.77921,16.02009 2.20557,0.22452 2.58857,-15.80878 z m -45.64339,2.40367 -3.9621,0.83204 4.22624,15.4654 2.17916,-0.47545 z m 62.08611,0 -2.43009,15.83519 2.16595,0.46225 4.21303,-15.45219 z m -78.21186,4.09417 -3.83003,1.24146 5.79788,14.93711 2.12632,-0.69997 z m 94.3244,0 -4.08096,15.50502 2.12632,0.67355 5.79788,-14.93711 z m -109.92186,5.75825 -3.68476,1.65088 7.32989,14.23714 2.04708,-0.91128 z m 125.51933,0 -5.66581,14.98995 2.03388,0.91128 7.32989,-14.25035 z m -137.97353,5.95636 -8.38645,4.83376 11.7014,17.85586 6.28654,-3.61871 z m 150.45414,0 -9.6279,19.07091 6.28653,3.61871 11.7014,-17.85586 z m -166.96289,10.28825 -3.26213,2.35085 10.12977,12.41458 1.79615,-1.3075 z m 183.44523,0 -8.6638,13.48435 1.80936,1.29428 10.14298,-12.40137 z m -196.49375,10.28826 -2.99799,2.69422 11.35802,11.27878 1.66408,-1.47918 z m 209.55547,0.0132 -10.02411,12.48062 1.63766,1.49239 11.39764,-11.26557 z m -221.45498,11.59575 -2.72064,3.01119 12.50703,10.02412 1.49239,-1.66409 z m 233.35449,0 -11.27878,11.38443 1.49239,1.65088 12.48061,-10.02412 z m -243.98612,12.78437 -2.37726,3.26213 13.47114,8.677 1.3207,-1.82256 z m 254.61775,0.0264 -12.40137,10.11656 1.29428,1.80936 13.48435,-8.66379 z m -262.4495,11.35802 -4.83377,8.38644 19.07091,9.6147 3.63193,-6.28653 z m 270.26804,0 -17.86907,11.71461 3.63193,6.28653 19.07091,-9.6147 z m -279.40729,17.14268 -1.63767,3.71117 14.96354,5.67901 0.91128,-2.03388 z m 288.54654,0.0264 -14.23715,7.34309 0.89808,2.02067 14.97674,-5.6658 z m -294.701,15.42577 -1.24146,3.85645 15.47861,4.06775 0.69997,-2.11312 z m 300.85546,0.0132 -14.92391,5.82429 0.68676,2.11312 15.47861,-4.08097 z m -305.37225,15.99368 -0.83204,3.94889 15.82198,2.4433 0.47545,-2.17916 z m 309.88904,0.0264 -15.46539,4.21303 0.46224,2.16595 15.8352,-2.43009 z m -312.70213,16.36347 -0.40942,4.01493 15.99368,0.76601 0.23772,-2.20557 z m 315.51523,0.0264 -15.82199,2.56216 0.23773,2.21877 15.99367,-0.77921 z m -316.585,13.76169 v 9.66753 l 21.3161,-1.20184 v -7.25064 z m 317.65476,0 -21.3161,1.21505 v 7.25064 l 21.3161,1.20184 z m -301.00073,18.63508 -15.99368,0.77921 0.40942,4.01493 15.82198,-2.56216 z m 284.34671,0.0264 -0.23773,2.21878 15.82199,2.57536 0.40941,-4.02813 z m -282.12794,14.76543 -15.82198,2.43009 0.83204,3.9621 15.46539,-4.19983 z m 279.89595,0.0132 -0.46224,2.19236 15.46539,4.21303 0.83205,-3.9621 z m -276.13195,14.46166 -15.47861,4.08096 1.24146,3.83003 14.9107,-5.79787 z m 272.38116,0.0264 -0.69997,2.11312 14.93712,5.79787 1.24146,-3.83003 z m -267.13798,13.973 -14.96354,5.67901 1.63767,3.68475 14.23715,-7.32988 z m 261.8816,0.0132 -0.89808,2.04708 14.23715,7.31668 1.63767,-3.67154 z m -251.83108,8.53172 -19.07091,9.6147 4.83377,8.37323 17.86907,-11.7146 z m 241.79376,0 -3.63193,6.27333 17.86907,11.7146 4.83377,-8.37323 z m -237.10527,17.43324 -13.48435,8.66379 2.37726,3.27534 12.40137,-10.14298 z m 232.41678,0.0264 -1.3207,1.78295 12.40138,10.14298 2.39046,-3.26213 z m -223.11905,11.66179 -12.48062,10.02411 2.70744,3.01119 11.26557,-11.37122 z m 213.79491,0.0264 -1.49239,1.65087 11.27878,11.37123 2.70743,-2.99799 z m -203.29535,10.61843 -11.38443,11.29198 3.01119,2.70744 10.02412,-12.50703 z m 192.80899,0.0264 -1.65087,1.49239 10.02411,12.49382 2.99799,-2.72064 z m -181.26607,9.49583 -10.14298,12.40138 3.28855,2.36405 8.66379,-13.45793 z m 169.70995,0 -1.78295,1.3207 8.6638,13.47114 3.26212,-2.39046 -10.14297,-12.40137 z m -156.74068,2.37726 -11.7014,17.84266 8.38645,4.83376 9.60148,-19.04449 z m 143.79782,0 -6.28653,3.63193 9.6279,19.04449 8.36003,-4.83376 z m -131.02665,12.74476 -7.32988,14.23715 3.69796,1.65087 5.6658,-14.97674 z m 118.24227,0 -2.04708,0.91128 5.69221,14.98995 3.67155,-1.63767 z m -104.3353,5.4809 -5.79787,14.91071 3.85644,1.25466 4.08097,-15.49181 z m 90.41512,0 -2.13953,0.67356 4.10738,15.50502 3.83003,-1.24146 z m -48.81307,1.99426 -1.20183,21.32931 h 9.66752 l -1.21504,-21.32931 z m -27.1668,1.99426 -4.21303,15.43898 3.94889,0.84525 2.43009,-15.83519 z m 61.55783,0 -2.17915,0.44904 2.44329,15.83519 3.9621,-0.84525 z m -46.81881,2.44329 -2.58858,15.80878 4.02814,0.42263 0.77921,-15.99368 z m 32.06659,0 -2.20557,0.23773 0.76601,15.99368 4.02813,-0.42263 z"
         label="Layer 1"
         transform="translate(-286.85235,-418.32406)"
         inkscape:connector-curvature="0"
         style="fill:#000000;fill-rule:evenodd" />
      <path
         d="m 357.37035,618.94942 c -3.36778,0 -5.79787,-0.39621 -7.27705,-1.21504 -1.49239,-0.80563 -2.15274,-2.08671 -1.99426,-3.84324 v -0.39621 h 4.76773 v 0.39621 c 0,0.97732 0.383,1.71691 1.14901,2.21878 0.7528,0.50186 1.87539,0.7528 3.35457,0.7528 2.46971,0 4.02814,-0.43583 4.66208,-1.29429 0.55469,-0.77921 0.85845,-2.52254 0.91128,-5.22997 -2.11312,0.91128 -4.35831,1.36032 -6.73557,1.36032 -2.98478,0 -5.11111,-0.43583 -6.37898,-1.30749 -1.28108,-0.87167 -1.91502,-2.33764 -1.91502,-4.37152 v -0.72639 c 0,-1.98105 0.80563,-3.46023 2.41688,-4.45075 1.59805,-0.97732 4.01493,-1.46598 7.25065,-1.46598 3.94889,0 6.6167,0.54149 7.99023,1.62446 1.37353,1.08297 2.06029,3.18289 2.03388,6.28653 v 2.29802 c -0.0132,3.68475 -0.72639,6.15446 -2.12633,7.44875 -1.38673,1.28108 -4.09417,1.91501 -8.1091,1.91501 z m 5.42808,-13.72207 c 0,-1.42636 -0.35659,-2.40368 -1.05656,-2.91875 -0.69997,-0.52828 -2.03388,-0.77921 -3.97531,-0.77921 -1.80935,0 -3.10364,0.27735 -3.86965,0.84525 -0.77921,0.5679 -1.16221,1.5188 -1.16221,2.85271 v 0.73959 c 0,1.26787 0.39621,2.17916 1.18863,2.73385 0.77921,0.55469 2.06029,0.84525 3.84323,0.84525 1.65088,0 2.89234,-0.31697 3.75079,-0.92449 0.84525,-0.60752 1.28108,-1.49239 1.28108,-2.65461 z"
         id="imagebot_22"
         label="Layer 1"
         transform="translate(-286.85235,-418.32406)"
         inkscape:connector-curvature="0"
         style="fill:#000000" />
      <path
         d="m 603.4322,604.08784 c 0,-0.95661 -0.36832,-1.62908 -1.08654,-2.02688 -0.71822,-0.40727 -1.93366,-0.60617 -3.62792,-0.60617 -1.54693,0 -2.72554,0.24626 -3.51742,0.73877 -0.8103,0.49251 -1.17862,1.1934 -1.12337,2.09318 v 0.56828 H 589.252 v -0.56828 c -0.18416,-1.57225 0.53406,-2.78459 2.17307,-3.63702 1.63901,-0.85242 4.08832,-1.27864 7.31109,-1.27864 3.11227,0 5.4695,0.35992 7.0901,1.08921 1.60217,0.7293 2.41247,1.7901 2.41247,3.19187 v 0.54934 c 0,1.62908 -0.6998,2.77512 -2.13624,3.44759 -0.79188,0.38832 -1.95207,0.65352 -3.46217,0.80507 1.62059,0.16101 2.83604,0.42621 3.6095,0.80507 1.32594,0.63458 1.98891,1.8848 1.98891,3.73173 v 1.06079 c 0,1.62908 -0.84713,2.86037 -2.54138,3.67491 -1.69426,0.81454 -4.23565,1.22181 -7.64258,1.22181 -3.11228,0 -5.4695,-0.43569 -7.0901,-1.326 -1.63901,-0.88084 -2.39406,-2.14053 -2.28356,-3.77909 v -0.56828 h 4.7697 v 0.56828 c -0.0368,1.02291 0.31307,1.78063 1.06812,2.27314 0.73663,0.49251 1.89683,0.73877 3.46218,0.73877 1.87841,0 3.2596,-0.2652 4.16198,-0.77666 0.88396,-0.52092 1.32594,-1.31652 1.32594,-2.39626 v -1.05133 c 0,-0.95661 -0.44198,-1.70485 -1.32594,-2.24472 -0.90238,-0.53987 -2.15465,-0.80507 -3.75683,-0.80507 h -1.41802 v -2.19736 h 0.49722 c 2.08099,0 3.59109,-0.21784 4.5303,-0.65353 0.95763,-0.43568 1.43644,-1.13657 1.43644,-2.09318 z"
         id="imagebot_21"
         label="Layer 1"
         transform="translate(-286.85235,-418.32406)"
         inkscape:connector-curvature="0"
         style="fill:#000000" />
      <path
         d="m 484.72545,476.85531 c -3.34137,0 -5.77145,0.39621 -7.32988,1.18863 -1.55843,0.79242 -2.24519,1.98105 -2.06029,3.5791 v 0.5811 h 4.80735 v -0.5811 c -0.0396,-1.01694 0.27734,-1.71691 0.93769,-2.11312 0.67356,-0.39621 1.8754,-0.62073 3.64513,-0.62073 1.37353,0 2.48292,0.23772 3.32817,0.69997 0.84525,0.47545 1.26787,1.10939 1.26787,1.8886 0,1.38673 -1.04335,2.97157 -3.15647,4.79414 -2.09992,1.80936 -5.8507,4.31869 -11.21275,7.5412 v 1.16221 1.16222 h 19.51995 v -2.0735 h -14.76543 c 5.32243,-3.26213 8.99397,-5.74505 11.04106,-7.46195 2.25839,-1.91502 3.38099,-3.64514 3.38099,-5.16394 0,-1.5056 -0.79242,-2.6414 -2.39047,-3.40741 -1.59804,-0.79242 -3.93568,-1.17542 -7.01292,-1.17542 z m -15.91443,0.1981 c -1.1226,0.58111 -2.16595,1.01694 -3.09044,1.37353 -0.91128,0.34338 -2.0735,0.72639 -3.47344,1.10939 v 2.28481 c 1.8754,-0.50187 3.43382,-0.99052 4.63566,-1.43956 l 0.9509,-0.3698 v 16.12575 h 2.41688 2.40368 v -19.08412 z"
         id="imagebot_20"
         label="Layer 1"
         transform="translate(-286.85235,-418.32406)"
         inkscape:connector-curvature="0"
         style="fill:#000000" />
      <path
         d="m 478.71627,717.14347 c 3.36779,0 5.79787,0.40941 7.27706,1.21504 1.47918,0.80563 2.15274,2.09991 1.99425,3.85644 v 0.39621 h -4.76772 v -0.39621 c 0,-0.97731 -0.38301,-1.71691 -1.14901,-2.21877 -0.76601,-0.51507 -1.8754,-0.76601 -3.35458,-0.76601 -2.24519,0 -3.71117,0.48866 -4.39793,1.46598 -0.59432,0.84525 -0.92449,2.49612 -0.97732,4.95262 2.12633,-0.83204 4.43755,-1.24145 6.94688,-1.24145 2.8263,0 4.84697,0.43583 6.06202,1.30749 1.21504,0.87166 1.82256,2.32443 1.82256,4.37152 v 0.72638 c 0,1.98105 -0.83204,3.46024 -2.46971,4.43755 -1.63767,0.99053 -4.10737,1.47919 -7.38271,1.47919 -3.40741,0 -5.89032,-0.50187 -7.46196,-1.49239 -1.57163,-0.99053 -2.36405,-2.56216 -2.36405,-4.7149 v -2.28481 c 0.0264,-4.58283 0.67356,-7.58082 1.98105,-8.99397 1.28108,-1.39994 4.02814,-2.09991 8.24117,-2.09991 z m -5.40166,13.72207 c 0,1.43956 0.35659,2.41688 1.05656,2.93195 0.69997,0.51508 2.02067,0.77922 3.94889,0.77922 1.80936,0 3.10365,-0.29056 3.86965,-0.85846 0.76601,-0.5679 1.16222,-1.5188 1.16222,-2.85271 v -0.72638 c 0,-1.26788 -0.39621,-2.17916 -1.18863,-2.73385 -0.79242,-0.5679 -2.0735,-0.84525 -3.84324,-0.84525 -1.63767,0 -2.87913,0.30376 -3.72437,0.91128 -0.85846,0.60752 -1.28108,1.49239 -1.28108,2.66782 z"
         id="imagebot_19"
         label="Layer 1"
         transform="translate(-286.85235,-418.32406)"
         inkscape:connector-curvature="0"
         style="fill:#000000" />
      <path
         d="m 410.58136,493.8263 c -1.1226,0.58111 -2.16595,1.04336 -3.10365,1.39995 -0.91128,0.34338 -2.06029,0.69997 -3.47344,1.08297 v 2.28481 c 1.8886,-0.48866 3.43382,-0.96411 4.64886,-1.41315 l 0.95091,-0.36979 v 16.12574 h 2.41688 2.39047 V 493.8263 Z m 16.16536,0 c -1.12259,0.58111 -2.13953,1.04336 -3.07723,1.39995 -0.91128,0.34338 -2.07349,0.69997 -3.47344,1.08297 v 2.28481 c 1.8754,-0.48866 3.40741,-0.96411 4.62245,-1.41315 l 0.95091,-0.36979 v 16.12574 h 2.41688 2.41688 V 493.8263 Z"
         id="imagebot_18"
         label="Layer 1"
         transform="translate(-286.85235,-418.32406)"
         inkscape:connector-curvature="0"
         style="fill:#000000" />
      <path
         d="m 383.19004,537.89806 c -3.34137,0 -5.78467,0.42263 -7.39592,1.25467 -1.61126,0.83204 -2.41688,2.12632 -2.41688,3.85644 v 9.00718 c 0,1.74332 0.84525,3.10364 2.54895,4.04134 1.7037,0.9509 4.12058,1.42635 7.26385,1.42635 3.2093,0 5.67901,-0.47545 7.3563,-1.39994 1.66408,-0.9377 2.49612,-2.28481 2.49612,-4.06775 v -9.00718 c 0,-1.80936 -0.766,-3.11685 -2.31122,-3.92248 -1.54522,-0.79242 -4.06776,-1.18863 -7.5412,-1.18863 z m -15.67671,0.19811 c -1.1226,0.58111 -2.13953,1.04335 -3.07723,1.39994 -0.91128,0.34338 -2.0735,0.69997 -3.47344,1.08297 v 2.28481 c 1.87539,-0.50186 3.43382,-0.96411 4.63566,-1.42635 l 0.93769,-0.383 v 16.15216 h 2.43009 2.40367 v -19.11053 z m 15.67671,1.90181 c 1.76974,0 3.06402,0.23772 3.85644,0.69997 0.79242,0.47545 1.18863,1.24145 1.18863,2.31122 v 9.00718 c 0,1.08297 -0.42262,1.91501 -1.28108,2.48291 -0.84524,0.5547 -2.11312,0.81884 -3.76399,0.81884 -1.7037,0 -2.95837,-0.26414 -3.7772,-0.80563 -0.81884,-0.54149 -1.22825,-1.37353 -1.22825,-2.49612 v -9.00718 c 0,-1.12259 0.383,-1.91501 1.12259,-2.35084 0.73959,-0.44904 2.02067,-0.66035 3.88286,-0.66035 z"
         id="imagebot_17"
         label="Layer 1"
         transform="translate(-286.85235,-418.32406)"
         inkscape:connector-curvature="0"
         style="fill:#000000" />
      <path
         d="m 380.08488,670.60548 c 1.62059,0.17996 2.81762,0.48304 3.59109,0.89979 1.32594,0.73877 2.00732,2.15 2.00732,4.24318 v -0.40727 c 0,1.73327 -0.86554,3.08768 -2.59663,4.07271 -1.73109,0.97555 -4.14356,1.46806 -7.20059,1.46806 -3.31486,0 -5.78258,-0.45462 -7.38476,-1.35441 -1.58376,-0.90925 -2.39406,-2.30155 -2.39406,-4.18636 v 0.40727 c 0,-1.96058 0.73664,-3.3434 2.20991,-4.14847 0.92079,-0.49251 2.22831,-0.83348 3.9594,-1.01344 -1.3996,-0.1989 -2.52297,-0.50198 -3.3701,-0.91873 -1.47327,-0.73876 -2.2099,-1.91322 -2.2099,-3.52336 v 0.37886 c 0,-1.66697 0.79188,-2.95508 2.41248,-3.86433 1.60217,-0.90926 3.88574,-1.36388 6.85069,-1.36388 3.22277,0 5.58,0.41674 7.07168,1.25969 1.47327,0.83349 2.22832,2.15948 2.22832,3.96852 v -0.37886 c 0,1.61014 -0.68139,2.7846 -2.02574,3.53284 -0.79188,0.43568 -1.84159,0.73877 -3.14911,0.92819 z m -4.12515,-1.07026 c 1.52851,0 2.65188,-0.27468 3.38851,-0.81455 0.71822,-0.53987 1.08654,-1.38282 1.08654,-2.50992 v 0.37886 c 0,-1.13657 -0.3499,-1.95111 -1.0497,-2.45309 -0.69981,-0.50199 -1.84159,-0.75771 -3.42535,-0.75771 -1.47327,0 -2.57822,0.27467 -3.33327,0.81454 -0.73663,0.53039 -1.12336,1.33546 -1.12336,2.39626 v -0.37886 c 0,1.1271 0.36831,1.97005 1.10495,2.50992 0.71821,0.53987 1.84158,0.81455 3.35168,0.81455 z m -0.0737,2.13106 c -1.80476,0 -3.07545,0.28414 -3.8305,0.85243 -0.75505,0.55881 -1.12337,1.50595 -1.12337,2.82247 v -0.40727 c 0,1.4586 0.34991,2.46257 1.03129,2.99297 0.6998,0.53039 2.00733,0.79559 3.92258,0.79559 1.78633,0 3.05703,-0.28414 3.83049,-0.87137 0.75505,-0.57775 1.14178,-1.55331 1.14178,-2.91719 v 0.40727 c 0,-1.42071 -0.3499,-2.38679 -1.0497,-2.89824 -0.68139,-0.51146 -1.98891,-0.77666 -3.92257,-0.77666 z"
         id="imagebot_16"
         label="Layer 1"
         transform="translate(-286.85235,-418.32406)"
         inkscape:connector-curvature="0"
         style="fill:#000000" />
      <path
         d="m 411.37339,721.35324 12.43069,-17.0201 h -14.27227 v -2.09318 h 18.56317 v 1.04185 1.05133 l -11.01268,17.0201 z"
         id="imagebot_15"
         label="Layer 1"
         transform="translate(-286.85235,-418.32406)"
         inkscape:connector-curvature="0"
         style="fill:#000000" />
      <path
         d="m 548.29517,715.94508 c 0,2.15 -0.6998,3.6749 -2.11782,4.55574 -1.39961,0.88084 -3.84891,1.31652 -7.29268,1.31652 -3.42534,0 -5.8194,-0.32202 -7.16376,-0.95661 -1.34435,-0.64405 -2.08099,-1.81851 -2.24673,-3.51389 v -0.56828 h 4.7697 v 0.56828 c 0.1105,0.80507 0.47881,1.3923 1.14178,1.77115 0.66298,0.36939 1.65743,0.55882 2.98337,0.55882 2.04416,0 3.40693,-0.27467 4.10673,-0.83349 0.71822,-0.54934 1.06812,-1.62908 1.06812,-3.23922 v -1.27863 c 0,-1.1934 -0.33148,-2.03636 -0.97604,-2.50993 -0.62614,-0.47357 -1.76792,-0.71035 -3.40693,-0.71035 -1.56534,0 -2.72554,0.21784 -3.48059,0.64405 -0.77347,0.42622 -1.12337,1.07027 -1.10495,1.93217 h -4.91703 l 0.3499,-11.25202 h 17.36614 v 2.15001 h -12.98317 l -0.18416,6.08063 c 0.82871,-0.42621 1.5101,-0.73877 2.06258,-0.94714 1.23386,-0.46409 2.72554,-0.69141 4.49346,-0.69141 2.81762,0 4.7697,0.41674 5.87465,1.24076 1.10495,0.82401 1.65743,2.29207 1.65743,4.4042 z"
         id="imagebot_14"
         label="Layer 1"
         transform="translate(-286.85235,-418.32406)"
         inkscape:connector-curvature="0"
         style="fill:#000000" />
      <path
         d="m 582.89853,673.5132 h -13.38831 v -0.98502 -0.98503 l 11.52831,-12.44542 h 3.33327 3.35168 v 12.33177 h 4.27248 v 2.0837 h -4.27248 v 4.68835 h -4.82495 z m 0,-2.0837 v -9.96392 l -9.13425,9.96392 z"
         id="imagebot_13"
         label="Layer 1"
         transform="translate(-286.85235,-418.32406)"
         inkscape:connector-curvature="0"
         style="fill:#000000" />
      <path
         d="m 591.20408,541.67132 c 0,1.51542 -1.12337,3.22974 -3.38852,5.15244 -2.04415,1.72379 -5.70891,4.2053 -11.03108,7.46346 h 14.7695 v 2.08371 H 572.0516 v -1.16498 -1.15552 c 5.3406,-3.22974 9.07901,-5.74913 11.17842,-7.55817 2.11782,-1.81851 3.16752,-3.41918 3.16752,-4.79253 0,-0.77666 -0.42356,-1.40177 -1.27069,-1.87534 -0.84713,-0.4641 -1.95208,-0.70088 -3.31485,-0.70088 -1.76792,0 -3.00178,0.1989 -3.66475,0.60617 -0.66297,0.3978 -0.97604,1.10815 -0.92079,2.13106 v 0.56829 h -4.80654 v -0.56829 c -0.20257,-1.60066 0.47881,-2.79406 2.04416,-3.58966 1.56535,-0.7956 4.01465,-1.19339 7.34792,-1.19339 3.07545,0 5.41426,0.39779 6.99802,1.17445 1.60218,0.77665 2.39406,1.92269 2.39406,3.41918 z"
         id="imagebot_12"
         label="Layer 1"
         transform="translate(-286.85235,-418.32406)"
         inkscape:connector-curvature="0"
         style="fill:#000000" />
      <path
         d="m 539.51081,511.97848 v -16.1298 l -0.95762,0.35992 c -1.19703,0.45462 -2.74396,0.92819 -4.62238,1.42071 v -2.28261 c 1.39961,-0.37886 2.55981,-0.73877 3.46218,-1.08921 0.93921,-0.35045 1.9705,-0.81454 3.09386,-1.3923 h 3.8305 v 19.11329 h -2.39406 z"
         id="imagebot_11"
         label="Layer 1"
         transform="translate(-286.85235,-418.32406)"
         inkscape:connector-curvature="0"
         style="fill:#000000" />
      <path
         transform="matrix(0.144917,-0.0261811,0.0261811,0.144917,221.18265,141.97194)"
         d="m -204.82374,291.65121 a 52.31911,52.31911 0 1 1 -104.63822,0 52.31911,52.31911 0 1 1 104.63822,0 z"
         id="imagebot_9"
         label="Layer 1"
         inkscape:connector-curvature="0"
         style="opacity:0.8;fill:#000000;fill-rule:evenodd;filter:url(#imagebot_10)" />
      <path
         transform="matrix(0.144917,-0.0261811,0.0261811,0.144917,221.09065,141.69294)"
         d="m -204.82374,291.65121 a 52.31911,52.31911 0 1 1 -104.63822,0 52.31911,52.31911 0 1 1 104.63822,0 z"
         id="imagebot_8"
         label="Layer 1"
         inkscape:connector-curvature="0"
         style="fill:#000000;fill-rule:evenodd" />
      <path
         transform="matrix(0.125615,-0.0226939,0.0226939,0.125615,217.17965,148.41394)"
         d="m -204.82374,291.65121 a 52.31911,52.31911 0 1 1 -104.63822,0 52.31911,52.31911 0 1 1 104.63822,0 z"
         id="imagebot_6"
         label="Layer 1"
         inkscape:connector-curvature="0"
         style="fill:url(#imagebot_7);fill-rule:evenodd" />
      <path
         transform="matrix(0.2172,0,0,0.2172,178.15765,81.72594)"
         d="m -257.15625,243.625 c -17.15839,0 -32.0723,9.02788 -40.5625,22.53125 11.16433,-10.62995 26.22089,-17.1875 42.8125,-17.1875 11.38015,0 22.03341,3.10774 31.21875,8.46875 -8.65241,-8.46871 -20.38857,-13.8125 -33.46875,-13.8125 z"
         id="imagebot_4"
         label="Layer 1"
         inkscape:connector-curvature="0"
         style="opacity:0.8;fill:url(#imagebot_5);fill-rule:evenodd" />
      <title
         id="title196">Layer 1</title>
    </g>
  </g>
</svg>
