<?xml version="1.0" encoding="UTF-8" standalone="no"?>
<!-- Created with Inkscape (http://www.inkscape.org/) -->

<svg
   xmlns:dc="http://purl.org/dc/elements/1.1/"
   xmlns:cc="http://creativecommons.org/ns#"
   xmlns:rdf="http://www.w3.org/1999/02/22-rdf-syntax-ns#"
   xmlns:svg="http://www.w3.org/2000/svg"
   xmlns="http://www.w3.org/2000/svg"
   xmlns:xlink="http://www.w3.org/1999/xlink"
   xmlns:sodipodi="http://sodipodi.sourceforge.net/DTD/sodipodi-0.dtd"
   xmlns:inkscape="http://www.inkscape.org/namespaces/inkscape"
   width="61.912388mm"
   height="54.94426mm"
   viewBox="0 0 61.912388 54.94426"
   version="1.1"
   id="svg279"
   inkscape:version="0.92.2 (5c3e80d, 2017-08-06)"
   sodipodi:docname="sun.svg">
  <defs
     id="defs273">
    <filter
       id="imagebot_32">
      <feGaussianBlur
         id="imagebot_54"
         stdDeviation="5.25714" />
    </filter>
    <filter
       id="imagebot_29">
      <feGaussianBlur
         id="imagebot_53"
         stdDeviation="5.29855" />
    </filter>
    <filter
       id="imagebot_35">
      <feGaussianBlur
         id="imagebot_52"
         stdDeviation="5.25714" />
    </filter>
    <filter
       id="imagebot_10">
      <feGaussianBlur
         id="imagebot_51"
         stdDeviation="1.04638" />
    </filter>
    <linearGradient
       id="imagebot_41"
       y2="0.5"
       x2="1.0028501"
       y1="1.03689"
       x1="0.50001001">
      <stop
         id="imagebot_50"
         offset="0"
         stop-color="#ffffff" />
      <stop
         id="imagebot_49"
         offset="1"
         stop-opacity="0"
         stop-color="#ffffff" />
    </linearGradient>
    <radialGradient
       id="imagebot_40"
       gradientUnits="userSpaceOnUse"
       cy="332.35999"
       cx="-485.70999"
       r="262.85999">
      <stop
         id="imagebot_48"
         offset="0"
         stop-color="#f0f7f9" />
      <stop
         id="imagebot_47"
         offset="1"
         stop-color="#cccccc" />
    </radialGradient>
    <radialGradient
       id="imagebot_37"
       gradientUnits="userSpaceOnUse"
       cy="353"
       cx="-257.14001"
       gradientTransform="matrix(1.6357,-0.014127,0.0086362,0.99996,160.42,-3.6194)"
       r="52.319">
      <stop
         id="imagebot_46"
         offset="0"
         stop-color="#ffffff" />
      <stop
         id="imagebot_45"
         offset="1"
         stop-opacity="0"
         stop-color="#ffffff" />
    </radialGradient>
    <radialGradient
       id="imagebot_36"
       gradientUnits="userSpaceOnUse"
       cy="219.21001"
       cx="-260.01001"
       gradientTransform="matrix(-0.99219,0.12477,-0.075183,-0.59784,-502.2,415.88)"
       r="37.015999">
      <stop
         id="imagebot_44"
         offset="0"
         stop-color="#ffffff" />
      <stop
         id="imagebot_43"
         offset="1"
         stop-opacity="0"
         stop-color="#ffffff" />
    </radialGradient>
    <linearGradient
       xlink:href="#imagebot_41"
       id="imagebot_30"
       x1="0.50001001"
       y1="1.03689"
       x2="1.0028501"
       y2="0.5" />
    <radialGradient
       xlink:href="#imagebot_40"
       id="imagebot_27"
       gradientUnits="userSpaceOnUse"
       cx="-485.70999"
       cy="332.35999"
       r="262.85999" />
    <radialGradient
       xlink:href="#imagebot_37"
       id="imagebot_7"
       gradientUnits="userSpaceOnUse"
       gradientTransform="matrix(1.6357,-0.014127,0.0086362,0.99996,160.42,-3.6194)"
       cx="-257.14001"
       cy="353"
       r="52.319" />
    <radialGradient
       xlink:href="#imagebot_36"
       id="imagebot_5"
       gradientUnits="userSpaceOnUse"
       gradientTransform="matrix(-0.99219,0.12477,-0.075183,-0.59784,-502.2,415.88)"
       cx="-260.01001"
       cy="219.21001"
       r="37.015999" />
  </defs>
  <sodipodi:namedview
     id="base"
     pagecolor="#ffffff"
     bordercolor="#666666"
     borderopacity="1.0"
     inkscape:pageopacity="0.0"
     inkscape:pageshadow="2"
     inkscape:zoom="0.35"
     inkscape:cx="393.96572"
     inkscape:cy="-351.38529"
     inkscape:document-units="mm"
     inkscape:current-layer="layer1"
     showgrid="true"
     inkscape:snap-global="false"
     inkscape:window-width="1920"
     inkscape:window-height="1016"
     inkscape:window-x="0"
     inkscape:window-y="27"
     inkscape:window-maximized="1">
    <inkscape:grid
       type="xygrid"
       id="grid281"
       originx="-1.5965691"
       originy="-241.13736" />
  </sodipodi:namedview>
  <metadata
     id="metadata276">
    <rdf:RDF>
      <cc:Work
         rdf:about="">
        <dc:format>image/svg+xml</dc:format>
        <dc:type
           rdf:resource="http://purl.org/dc/dcmitype/StillImage" />
        <dc:title></dc:title>
      </cc:Work>
    </rdf:RDF>
  </metadata>
  <g
     inkscape:label="Layer 1"
     inkscape:groupmode="layer"
     id="layer1"
     transform="translate(-1.5965691,-0.91838325)">
    <g
       id="g4225"
       transform="matrix(0.07343913,0,0,0.06856504,1.5965691,0.91838325)">
      <path
         d="M 0,0 V 0.77969 C 0.19,0.57969 0.5797,0.19 0.7797,0 Z m 453.42,4.0297 c -5.63,6.97 -25.57,-6.1503 -21.88,8.9297 -9.4,52.05 -12.81,105.77 -20.95,157.33 6.38,2.62 11.509,10.42 17.469,2.5297 7.01,-32.73 9.8,-67.39 16.1,-100.68 3.3,-22.53 15.511,-47.531 9.2609,-68.111 z m -268.75,11.516 c -7.9319,-0.38718 -23.317,13.353 -7.1406,12.664 0.2516,-0.10488 0.5139,-0.24029 0.7797,-0.3875 -0.2661,0.14743 -0.5278,0.28251 -0.7797,0.3875 l -0.1,0.8 c -5.18,-1.25 -3.5103,5.5106 -1.3703,7.7906 13.29,20.98 24.18,43.39 40.55,62.6 25.52,36.36 49.271,74.5 79.891,106.33 8.59,2.6 30.529,-18.88 12.609,-17.72 -41.29,-53.3 -78.07,-111.63 -114.65,-168.74 -2.8,-0.84 -7.3494,0.87969 -7.6094,-3.1203 -0.6178,-0.37406 -1.3592,-0.56463 -2.1797,-0.60469 z m 4.0531,6.1484 c -0.1742,1.84e-4 -0.3508,0.01428 -0.5296,0.03906 0.1786,-0.02473 0.3556,-0.03888 0.5296,-0.03906 z m 0.2204,0.01094 c 0.103,0.0066 0.2067,0.01178 0.3078,0.02813 -0.1013,-0.01641 -0.2047,-0.02154 -0.3078,-0.02813 z m -0.9422,0.05937 c -0.148,0.02707 -0.2979,0.06297 -0.4485,0.10469 0.151,-0.04187 0.3001,-0.07755 0.4485,-0.10469 z m 1.4531,0.01563 c 0.087,0.02029 0.174,0.03888 0.2594,0.06719 -0.085,-0.0283 -0.1726,-0.0469 -0.2594,-0.06719 z m -2.0766,0.13594 c -0.02,0.0062 -0.041,0.0154 -0.061,0.02188 0.02,-0.0065 0.041,-0.01563 0.061,-0.02188 z m 2.5469,0.01719 c 0.082,0.03429 0.1637,0.06851 0.2438,0.11094 -0.08,-0.04256 -0.162,-0.07654 -0.2438,-0.11094 z m 0.4391,0.22812 c 0.082,0.05131 0.1624,0.1065 0.2421,0.16719 -0.08,-0.06072 -0.1605,-0.11584 -0.2421,-0.16719 z m -3.875,0.10469 c -0.083,0.03792 -0.1664,0.07617 -0.25,0.11719 0.083,-0.04094 0.167,-0.07934 0.25,-0.11719 z m 4.3,0.2125 c 0.081,0.07042 0.1604,0.14708 0.239,0.22812 -0.079,-0.08094 -0.1583,-0.15778 -0.239,-0.22812 z m -5.32,0.322 c -0.043,0.02489 -0.085,0.04638 -0.1281,0.07187 0.043,-0.02554 0.085,-0.04694 0.1281,-0.07187 z m 5.7344,0.08437 c 0.084,0.09654 0.1644,0.20423 0.2453,0.31406 -0.081,-0.11015 -0.1614,-0.21727 -0.2453,-0.31406 z m 0.3828,0.5 c 0.093,0.13856 0.1841,0.29189 0.2735,0.45 -0.089,-0.15816 -0.18,-0.31138 -0.2735,-0.45 z m -7.139,0.05781 c -0.4336,0.29136 -0.8677,0.60296 -1.3016,0.925 0.4341,-0.32218 0.8677,-0.63353 1.3016,-0.925 z m 7.5062,0.55313 c 0.1192,0.22381 0.2343,0.46312 0.3453,0.725 -0.1108,-0.26144 -0.2263,-0.50148 -0.3453,-0.725 z m -11.75,2.5922 c -0.035,0.02538 -0.068,0.04834 -0.1031,0.07344 0.035,-0.02523 0.068,-0.04793 0.1031,-0.07344 z m -1.19,0.816 c -0.1479,0.09445 -0.2962,0.19004 -0.4406,0.275 0.1447,-0.08512 0.2924,-0.18034 0.4406,-0.275 z m 580.7,97.537 c -0.686,0.0205 -1.4156,0.11719 -2.1953,0.3 -1.24,6.09 -8.0088,6.8991 -11.769,11.539 -47.4,28.61 -90.091,63.45 -134.94,96.08 -11.33,5.43 -18.95,19.541 -32.48,19.461 -2.05,4.92 -11.311,10.61 -4.9906,15.28 3.37,3.04 12.311,11.371 11.711,1.1406 5.47,-1.8 11.92,-0.14124 16.55,-4.1312 56.57,-39.17 113.42,-77.47 169.64,-116.38 4.32,-0.81 8.3306,-4.1491 7.6406,-8.9391 -8.4644,-1.5859 -10.022,-13.972 -18.494,-14.345 -0.2191,-0.01 -0.4433,-0.0115 -0.6719,-0.005 z m -734.5,62.63 c -1.0504,-0.0253 -2.0731,0.13688 -3.0594,0.53438 1,4.57 4.8197,7.1806 -2.1703,4.0906 -6.73,7.03 -15.53,15.55 -15.83,26.38 6.71,4.19 5.1891,-7.3106 10.589,-8.7406 0.61,1.1 1.3197,2.1606 2.1797,3.0906 -6.01,-0.85 -3.4988,6.8697 0.5812,7.6297 58.19,28.19 122.5,40.289 181.49,66.509 7.78,2.43 17.881,3.8412 21.091,11.931 6.09,-3.62 22.849,-23.35 6.9094,-20.95 -43.84,-23.03 -89.229,-42.63 -134.49,-62.62 -13.7,-1.99 -26.181,-9.77 -36.881,-18.2 -7.5128,8.3375 -20.256,-9.4097 -30.409,-9.6547 z m 382.82,39.48 c -23.99,1.8 -48.731,2.4103 -71.311,11.62 -16.83,9.96 -32.769,21.52 -46.139,35.88 -20.24,31.92 -41.471,69.33 -32.641,108.02 0.62,39.38 13.98,83.169 50.72,103.81 20.52,12.96 42.011,25.73 65.391,32.65 0.3,5.58 10.089,7.1397 14.169,3.6797 6.13,3.47 13.061,7.0906 20.281,5.7406 38.05,-0.06 75.2,-15.629 103.53,-40.459 25.43,-16.33 38.58,-46.411 47.8,-74.381 -0.9,-23.38 8.0991,-47.88 -0.9609,-70.43 -13.4,-18.7 -19.09,-42.05 -34.58,-59.48 -20.22,-12.87 -37.759,-30.44 -60.239,-39.73 -17.17,-10.03 -38.24,-10.42 -56.02,-16.92 z m 429.77,77.114 c -4.1361,-0.29942 -2.8588,10.224 -9.7281,7.9859 -65.84,17.67 -130.28,40.951 -196.23,57.741 -4.09,0.45 -8.4397,5.03 -2.8297,7.25 -1.21,0.79 -0.93,2.4688 -0.95,3.7188 -3.08,-2.06 -2.31,-7.0488 -6.1,-8.0688 -1.65,7.43 -3.6503,17.72 2.3797,23.5 1.75,-4.01 3.0906,-8.19 4.3906,-12.35 2.5,4.79 9.9197,-0.70062 14.38,-0.0406 -2.93,6.22 -19,2.3794 -11.8,11.059 70.2,-12.73 136.53,-41.28 206.21,-57.35 0.6419,-4.1438 0.036,-5.7193 -2.6328,-5.7891 -0.6159,-0.0161 -1.3404,0.0484 -2.186,0.17969 1.77,-1.12 4.47,-2.0103 4.6,-4.4703 -0.084,-0.18839 -0.154,-0.40663 -0.214,-0.64219 0.06,0.236 0.1298,0.45349 0.214,0.64219 1.25,2.52 1.6894,7.9409 5.6594,6.2609 0.29,-9.77 -0.091,-19.941 -3.6906,-29.161 -0.5588,-0.28875 -1.044,-0.43465 -1.4719,-0.46563 z m -3.6844,12.056 c 0.041,0.008 0.078,0.0213 0.1172,0.0312 -0.039,-0.01 -0.076,-0.0232 -0.1172,-0.0312 z m 0.35,0.1 c 0.041,0.0154 0.079,0.0355 0.1187,0.0531 -0.039,-0.0177 -0.078,-0.0377 -0.1187,-0.0531 z m 0.3203,0.15469 c 0.034,0.0195 0.066,0.0397 0.098,0.0609 -0.032,-0.0213 -0.065,-0.0414 -0.098,-0.0609 z m 0.2938,0.20625 c 0.026,0.0213 0.05,0.0431 0.075,0.0656 -0.025,-0.0224 -0.05,-0.0444 -0.075,-0.0656 z m 0.2453,0.2375 c 0.028,0.031 0.056,0.0611 0.083,0.0937 -0.027,-0.0327 -0.055,-0.0627 -0.083,-0.0937 z m 0.1485,0.18281 c 0.1212,0.16134 0.2328,0.33658 0.3296,0.53126 0.082,0.16424 0.1477,0.34817 0.2141,0.5328 -0.066,-0.18459 -0.1325,-0.3686 -0.2141,-0.5328 -0.097,-0.19488 -0.2083,-0.36979 -0.3296,-0.53126 z m 0.7077,1.5891 c 0.027,0.0982 0.055,0.19338 0.078,0.29532 -0.024,-0.10168 -0.052,-0.19731 -0.078,-0.29532 z m 0.2047,0.94688 c 0.015,0.0914 0.035,0.17857 0.048,0.27188 -0.014,-0.0933 -0.033,-0.18041 -0.048,-0.27188 z m 0.1672,1.2375 c 0.053,0.55214 0.085,1.1143 0.1156,1.6797 -0.03,-0.5629 -0.063,-1.13 -0.1156,-1.6797 z m 0.2204,3.5312 c 0.01,0.14541 0.019,0.28986 0.03,0.43125 -0.011,-0.14127 -0.02,-0.28596 -0.03,-0.43125 z m 0.062,0.82188 c 0.017,0.18317 0.037,0.35665 0.058,0.52969 -0.021,-0.17244 -0.041,-0.34719 -0.058,-0.52969 z m 0.1079,0.91093 c 0.025,0.16498 0.056,0.31729 0.087,0.46876 -0.032,-0.15182 -0.062,-0.30336 -0.087,-0.46876 z m -633.96,93.231 c -21.45,6.33 -42.59,14.07 -63.22,22.58 -44.73,8.95 -85.51,32.419 -128.57,45.409 -1.14,8.51 1.6803,16.95 3.4703,25.15 4.77,2.72 5.8797,0.0306 4.3797,-3.5094 1.26,1.21 5.5003,2.1694 4.9703,-0.64062 62.42,-15.63 118.5,-49.669 178.92,-71.489 8.65,-1.19 8.79,-15.97 0.05,-17.5 z m -0.8547,7.0031 c 0.034,0.007 0.06,0.0232 0.092,0.0328 -0.032,-0.01 -0.058,-0.0256 -0.092,-0.0328 z m 0.3094,0.11562 c 0.032,0.0177 0.056,0.0435 0.084,0.0641 -0.029,-0.0206 -0.053,-0.0464 -0.084,-0.0641 z m 0.2328,0.1875 c 0.028,0.0299 0.049,0.0651 0.073,0.0984 -0.024,-0.0331 -0.046,-0.0688 -0.073,-0.0984 z m 0.175,0.25157 c 0.02,0.0391 0.035,0.0828 0.052,0.125 -0.017,-0.0423 -0.031,-0.0858 -0.052,-0.125 z m 0.1141,0.29843 c 0.014,0.0516 0.025,0.10622 0.036,0.16094 -0.011,-0.0547 -0.022,-0.10939 -0.036,-0.16094 z m 0.062,0.32344 c 0.025,0.18829 0.029,0.39167 0.023,0.60313 0.01,-0.21094 0,-0.41527 -0.023,-0.60313 z m -0.019,1.1375 c -0.012,0.10861 -0.02,0.21204 -0.036,0.32188 0.016,-0.10891 0.024,-0.21419 0.036,-0.32188 z m -0.139,0.89375 c -0.019,0.097 -0.033,0.1877 -0.053,0.28281 0.02,-0.0925 0.034,-0.18852 0.053,-0.28281 z m 364.21,88.895 c -5.1598,0.12127 -9.1366,4.8359 -10.939,9.4734 4.94,9.93 14.18,15.86 22.1,22.92 1.66,6.08 9.3694,9.0197 13.609,13.38 1.55,7.95 10.06,11.2 14.63,17.28 32.49,24.3 59.12,57.891 91.12,81.411 -1.49,19.44 21.15,0.009 21.38,-10.911 -21.17,-24.84 -50.88,-43.11 -73.58,-67.4 -25.39,-22.59 -48.059,-47.709 -76.039,-65.909 -0.7825,-0.18375 -1.5441,-0.26107 -2.2812,-0.24375 z m -293.19,6.5031 c -6.39,1.34 -3.8406,10.28 -7.3906,14.55 -5.5,17.19 -17.15,31.361 -26.67,46.291 -27.01,33.93 -47.22,75.299 -75.8,106.11 10.59,1.22 15.881,17.391 27.011,15.411 7.54,-4.34 -2.9606,-8.01 -6.7406,-10.55 2.09,0.43 3.4903,-2.2103 4.8203,-3.5203 -0.51,1.42 -0.2597,4.7003 1.7703,2.6703 9.9,-8.9 18.819,-19.01 25.209,-30.8 24.52,-42.08 51.94,-83.511 75.87,-126.04 -6.44,-1.68 -11.46,-9.3603 -18.08,-14.12 z m 4.7297,15.194 c 0.1604,0.005 0.3219,0.0314 0.4844,0.0672 -0.1621,-0.0357 -0.3243,-0.0618 -0.4844,-0.0672 z m 0.6062,0.0969 c 0.1632,0.043 0.3259,0.0959 0.4876,0.16563 0.1484,0.0641 0.294,0.14567 0.439,0.22968 -0.1453,-0.0842 -0.2903,-0.1655 -0.439,-0.22968 -0.1614,-0.0696 -0.3248,-0.12263 -0.4876,-0.16563 z m 2.1016,1.3281 c 0.059,0.0613 0.1124,0.12525 0.1688,0.18906 -0.056,-0.0634 -0.1103,-0.12819 -0.1688,-0.18906 z m 0.5078,0.60938 c 0.051,0.0695 0.1026,0.13657 0.15,0.2078 -0.047,-0.0708 -0.099,-0.13866 -0.15,-0.2078 z m 0.7797,1.5328 c 0.043,0.15197 0.083,0.3045 0.1047,0.45469 0.024,0.16886 0.029,0.33499 0.023,0.49844 0.01,-0.16377 0,-0.32924 -0.023,-0.49844 -0.022,-0.15003 -0.061,-0.30288 -0.1047,-0.45469 z m 0.1235,1.0531 c -0.012,0.16296 -0.035,0.32318 -0.081,0.47656 -0.045,0.14979 -0.1148,0.29068 -0.1953,0.42813 0.08,-0.13714 0.1502,-0.2787 0.1953,-0.42813 0.046,-0.153 0.069,-0.31403 0.081,-0.47656 z m -0.3391,1.0047 c -0.09,0.13452 -0.1928,0.26475 -0.3219,0.38281 -0.1263,0.11552 -0.2789,0.21893 -0.4453,0.31562 0.1661,-0.0966 0.3192,-0.20025 0.4453,-0.31562 0.1294,-0.11831 0.2318,-0.24796 0.3219,-0.38281 z m -0.9125,0.77656 c -0.1796,0.0916 -0.3731,0.17677 -0.5969,0.24531 0.2241,-0.0686 0.4171,-0.15352 0.5969,-0.24531 z m 155.95,31.444 c -0.6346,0.002 -1.3066,0.0794 -2.0125,0.24063 -8.96,6.61 -10.03,19.39 -10.25,29.95 -1.07,60.27 -0.21,120.2 -8.8,180.09 -16.9,7.35 13.361,17.481 19.861,10.941 19.13,-67.43 4.9103,-138.95 7.8203,-208.2 2.2385,-6.0447 -0.4841,-13.043 -6.6187,-13.022 z"
         id="path4218"
         inkscape:connector-curvature="0"
         style="fill:#fee06b" />
      <path
         transform="scale(0.8)"
         d="m 566.78,5.0371 c -7.04,8.7129 -31.97,-7.6879 -27.35,11.162 -11.75,65.063 -16.02,132.21 -26.19,196.66 7.97,3.28 14.38,13.03 21.83,3.17 8.77,-40.92 12.25,-84.24 20.13,-125.85 4.12,-28.167 19.39,-59.418 11.58,-85.143 z m -7.15,9.5859 c 3.15,0.147 5.2,1.44 3.86,6.039 -20.16,57.963 -20.73,120.36 -34.71,179.31 -0.63,3.35 0.37,12.99 -7.31,8.85 9.29,-51.36 10.36,-104.04 22.37,-155.07 -5.25,-12.5 2.32,-25.7 3.07,-38.6 2.81,0.992 8.67,-0.715 12.72,-0.527 z m -328.79,4.809 c -9.92,-0.484 -29.15,16.691 -8.93,15.83 5.64,-2.35 14.34,-14.062 18.45,-4.362 42.67,73.14 85.99,146.73 139.33,211.81 -3.89,5.68 -10.53,-1.42 -13.72,-5.03 -41.07,-50.5 -73.16,-108.37 -110.15,-160.99 -1.66,5.26 7.88,13.209 8.29,20.384 -12.85,-13.712 -23.5,-30.236 -34.02,-45.836 4.01,-4.462 7.17,9.888 11.02,6.25 -3.62,-9.7 -12.25,-14.851 -19.32,-21.226 -6.48,-1.563 -4.39,6.888 -1.72,9.738 16.62,26.225 30.23,54.24 50.69,78.25 31.9,45.45 61.59,93.12 99.86,132.91 10.74,3.25 38.17,-23.6 15.77,-22.15 C 334.77,168.39 288.8,95.47 243.07,24.09 c -3.5,-1.052 -9.18,1.098 -9.51,-3.902 -0.77,-0.468 -1.7,-0.706 -2.72,-0.756 z m 719.63,136.75 c -1.09,-0.05 -2.28,0.07 -3.58,0.37 -1.55,7.61 -10.01,8.62 -14.71,14.42 -59.25,35.77 -112.62,79.32 -168.68,120.1 -14.16,6.79 -23.69,24.43 -40.6,24.33 -2.56,6.15 -14.14,13.26 -6.24,19.1 4.21,3.8 15.39,14.21 14.64,1.43 6.84,-2.25 14.9,-0.18 20.69,-5.17 70.71,-48.96 141.77,-96.84 212.05,-145.47 5.4,-1.02 10.41,-5.19 9.55,-11.18 -10.58,-1.98 -12.53,-17.46 -23.12,-17.93 z m -1.59,11.77 c 4.81,1.77 11.17,4.95 12.33,10.5 -4.75,3.51 -12.49,12.09 -18.67,6.9 -10.23,9.92 -20.15,18.86 -32.29,26.22 -62.44,36.48 -118.59,82.98 -178.79,121.83 -5.85,-1.21 -9.27,-9.76 -2.05,-11.5 76.34,-48.9 143.28,-105.33 219.47,-153.95 z M 31.5,234.462 c -1.313,-0.03 -2.591,0.17 -3.824,0.66 1.25,5.72 6.024,8.98 -2.713,5.12 -8.413,8.79 -19.412,19.44 -19.787,32.97 8.387,5.24 6.486,-9.14 13.236,-10.92 5.238,-6.2 12.362,-10.8 15.537,-18.39 52.575,27.54 108.99,49.03 162,76.44 28.84,9.56 54.69,27.58 85.25,32.13 -1.09,3.63 -2.81,7.07 -5.06,10.12 -69.92,-41.83 -155.39,-47.23 -226.18,-86.99 -10.485,4.11 -19.023,-7 -28.823,-9.45 -7.513,-1.06 -4.374,8.59 0.726,9.54 72.738,35.23 153.13,50.36 226.86,83.13 9.73,3.04 22.36,4.81 26.37,14.92 7.61,-4.53 28.56,-29.19 8.63,-26.19 -54.8,-28.79 -111.53,-53.29 -168.11,-78.27 -17.122,-2.49 -32.723,-12.22 -46.098,-22.75 -9.391,10.42 -25.32,-11.77 -38.012,-12.07 z m 478.53,49.35 c -29.99,2.25 -60.92,3.02 -89.14,14.53 -21.04,12.45 -40.96,26.9 -57.68,44.85 -25.3,39.9 -51.84,86.66 -40.8,135.02 0.78,49.23 17.48,103.96 63.4,129.76 25.65,16.2 52.52,32.17 81.74,40.82 6.13,0.46 11.97,2.46 17.71,4.6 7.66,4.33 16.33,8.86 25.35,7.17 47.57,-0.07 94,-19.53 129.42,-50.57 31.78,-20.41 48.22,-58.02 59.75,-92.98 -1.13,-29.22 10.12,-59.85 -1.21,-88.04 -16.75,-23.37 -23.86,-52.56 -43.22,-74.35 -25.28,-16.08 -47.2,-38.04 -75.3,-49.66 -21.46,-12.53 -47.8,-13.02 -70.02,-21.15 z m -3.92,11.13 c 40.2,-0.24 79.07,17.2 109.89,41.44 -4.95,5.11 -12.53,-2.3 -18.68,-2.5 3.37,2.07 5.95,5.08 7.44,8.74 2.29,6.3 17.87,0.26 11.89,7.24 0.51,7.59 19.23,0.84 6.78,4.75 -2.39,7.78 11.85,5.14 17.63,5.45 1.38,6.59 -10.13,-1.18 -9.88,4.55 4.38,6.43 12.46,1.92 18.63,4.35 1.34,6.98 -13.25,-2.27 -11.06,5.84 5.55,9.45 19.09,-0.58 20.03,11.46 0.38,5.34 -10.02,-0.1 -8.83,6.02 4.29,5.3 12.7,-1.36 15.69,4.86 4.65,7.32 -13.39,5.58 -2.99,11.36 8.89,-8.49 17.55,11.6 6.17,13.16 -1.31,9.7 13.17,-1.77 12.34,8.49 8.63,13.94 -14.51,2.93 -12.37,13.46 6.5,4.17 21.18,-2.74 23.37,8.24 2.84,7.64 -10.25,3.29 -12.15,7.99 3.81,6.47 17.36,-4.11 13.81,9.09 5.44,14.37 -17.26,1.05 -16.31,12.38 4.79,3.09 21.13,-2.99 14.9,7.5 2.21,12.24 -9.28,6.19 -15.11,11.29 1.75,4.6 7.38,2.72 11.13,2.62 -2.09,6.14 2.03,20.27 -8.86,17.59 -9.17,-0.75 -2.28,10.32 4.9,6.12 5.37,15.1 -7.89,12.77 -18.23,15.18 -3.26,10.2 18.31,-1.41 10.4,8.69 -2.52,9.73 -20.61,0.91 -17.28,11.94 16.5,-2.81 0.05,11.67 -2.83,17.3 -9.44,-2.08 -17.48,3.11 -6.68,7.02 0.62,15.19 -28.79,3.32 -16.15,16.19 -2.01,11.85 -26.64,3.61 -17.71,17.44 -15.46,-4.31 -11.13,11.93 -26.68,12.63 -17.11,11.9 -38.81,13.98 -58.5,18 -14.73,-9.48 -37.01,-3.61 -51.28,-12.33 -26.79,-5.76 -52.08,-17.98 -75.46,-31.25 -25.48,-8.99 -40,-32.19 -54.03,-53.52 -21.13,-42.91 -28.32,-95.19 -12.75,-141.42 17.38,-54.61 62.19,-106.34 122.3,-111.84 11.3,-1.05 23.77,0.73 34.01,-4.86 4.18,-0.42 8.35,-0.63 12.51,-0.66 z m -8.87,29.13 c -0.34,-0.01 -0.66,-0.01 -0.96,0 -15.42,4.48 -18.24,23.4 -16.44,37.13 1.37,8.57 13.8,1.04 8.16,-5.64 -2.4,-11.31 4.81,-26.5 18.71,-22.15 4.05,-6.81 -4.38,-9.23 -9.47,-9.34 z m 62.1,4.92 c -9.49,1.96 -8.61,20.1 3.02,13.56 9.13,-15.14 18.58,16.05 27.34,10.02 -1.91,-14.58 -16.46,-23.49 -30.36,-23.58 z m 487.86,51.22 c -5.1,-0.38 -3.5,12.78 -12.1,9.98 -82.33,22.09 -162.88,51.19 -245.31,72.17 -5.12,0.57 -10.55,6.29 -3.54,9.07 85.06,-22.6 169.01,-49.98 253.25,-75.63 8.3,-3.5 5.3,9.64 7.1,13.61 1.6,3.15 2.1,9.93 7.1,7.83 0.3,-12.21 -0.1,-24.93 -4.6,-36.45 -0.7,-0.36 -1.3,-0.55 -1.9,-0.58 z m -470.74,32.6 c -8.15,2.65 -6.4,12.5 -4.56,18.9 5.65,17.7 9.35,36.86 20.55,52.24 8.36,4.17 13.4,-10.56 10.17,-16.46 -5.06,-18.81 -5.54,-46.03 -26.16,-54.68 z m 467.14,1.97 c -0.8,-0.02 -1.7,0.06 -2.7,0.22 -69.77,16.02 -137.15,42.42 -207.39,54.6 -7.47,8.04 -19.63,7.89 -29.63,10.28 -3.67,7.77 -23.76,2.97 -14.76,13.82 87.76,-15.91 170.67,-51.6 257.78,-71.69 0.8,-5.18 0,-7.15 -3.3,-7.23 z m -506.61,3.07 c -9.55,2.05 -5.58,13.89 -1.95,19.71 4.38,18.04 13.16,34.64 17.07,52.78 13.22,8.24 18.27,-17.79 13.95,-26.06 -3.35,-16.92 -8.6,-44.59 -29.07,-46.43 z m 40.91,2.69 c 7.73,9.7 21.89,32.98 13.35,46.62 -0.81,-16.66 -13.77,-30.09 -13.35,-46.62 z m -158.97,3.68 c -0.42,0 -0.85,0.01 -1.28,0.04 -17.54,6.65 -10.75,42.06 10.56,26.63 11.35,-7.79 3.73,-26.47 -9.28,-26.67 z m 123.64,5.82 c 10.3,10.72 13.03,29.52 18.55,43.84 -12.62,-8.33 -11.28,-30.59 -18.55,-43.84 z m -119.39,4.14 c 9.27,1.65 0.51,18.61 -8.68,11.32 -2.94,-5.99 3.86,-9.64 8.68,-11.32 z m 36.76,12.48 c -0.57,0 -1.15,0.03 -1.76,0.1 -11.65,3.13 -25.61,30.72 -6.27,32.35 18.15,2.86 25.42,-32.33 8.03,-32.45 z m -3.51,8.24 c 10.87,3 6.45,21.25 -5.99,16.21 -3.99,-4.63 2.52,-12.6 5.99,-16.21 z m 321.01,11.09 c -2.06,9.29 -4.57,22.15 2.97,29.37 2.19,-5.01 3.87,-10.23 5.49,-15.43 -0.29,-1.29 -0.56,-2.58 -0.84,-3.86 -3.85,-2.57 -2.88,-8.81 -7.62,-10.08 z m -372.49,5.61 c -12.69,3.6 -27.29,24.34 -11.96,33.19 8.16,-1 16.23,-4.32 23.02,-8.9 5.66,-8.65 0.5,-24.33 -11.06,-24.29 z m -1.95,8.74 c 18.24,2.41 2.54,18.51 -7.64,17.96 -4.15,-6.85 2.53,-13.82 7.64,-17.96 z m 55.16,42.44 c -2.03,0.02 -4.02,0.11 -5.94,0.25 -13.33,0.52 -21.15,11.26 -29.27,20.01 -3.98,3.07 -2.3,13.21 3.94,10.4 5.78,-13.66 21.46,-18.94 35.31,-19.55 -14.04,24.83 -8.49,61.87 17.95,75.93 19.41,14.09 45.46,11.64 67.9,8.13 16.94,-1.59 34.65,-8.39 45.35,-22.05 7.28,-4.99 16.56,-17.36 9.5,-24.26 -17.44,20.53 -42.99,33.12 -69.05,38.12 -3.68,-1.56 -7.15,-2.9 -9.55,1.28 -40.87,5.78 -71,-41.67 -56.06,-76.9 11.5,-0.94 30.11,28.48 25.83,6.02 -5.81,-14.35 -21.74,-17.54 -35.91,-17.38 z m -204.45,1.43 c -26.81,7.92 -53.23,17.59 -79.02,28.23 -55.91,11.18 -106.89,40.52 -160.72,56.76 -1.42,10.64 2.105,21.19 4.342,31.44 5.963,3.4 7.35,0.04 5.475,-4.39 -0.437,-7.85 -10.65,-22.59 1.625,-23.7 37.213,0.4 69.264,-20.54 103.2,-32.66 39.98,-18.09 80.45,-35.4 122.95,-46.88 3.53,-0.79 1.95,4.19 1.5,6.15 -25.42,6.44 -50.9,12.75 -73.67,26.52 -10.2,1.23 -17.86,14.96 -28.15,9.63 -42.81,12.65 -78.765,40.53 -121.34,53.38 -3.462,0.71 -3.15,5.88 0.1,6.76 78.02,-19.54 148.13,-62.09 223.65,-89.36 10.81,-1.49 10.99,-19.96 0.06,-21.88 z m 455.11,123.89 c -6.45,0.15 -11.42,6.04 -13.67,11.84 6.18,12.41 17.73,19.82 27.63,28.65 6.13,4.9 13.77,9.3 17.01,16.72 1.93,9.94 12.57,14 18.28,21.6 40.62,30.38 73.9,72.37 113.9,101.77 -1.86,24.3 26.44,0.01 26.73,-13.64 -26.46,-31.05 -63.6,-53.89 -91.98,-84.25 -31.73,-28.24 -60.07,-59.64 -95.04,-82.39 -0.98,-0.23 -1.93,-0.33 -2.86,-0.3 z m -366.48,8.12 c -7.99,1.68 -4.8,12.85 -9.24,18.19 -6.88,21.49 -21.44,39.2 -33.34,57.87 -33.76,42.41 -59.02,94.12 -94.75,132.63 13.24,1.53 19.85,21.74 33.77,19.27 9.42,-5.43 -3.71,-10.02 -8.43,-13.19 -3.48,-4.88 -11.89,-4.4 -14.07,-9.56 20.66,-22.74 35.66,-49.91 56.08,-72.83 28.13,-34.31 48.57,-74.1 72.88,-110.9 2.71,-7.35 12.62,3.75 5.85,5.83 -11.38,4.67 -8.58,19.41 -16.94,26.94 -31.95,52.3 -65.07,104.28 -97.77,156.12 -0.64,1.77 -0.33,5.87 2.21,3.34 12.37,-11.13 23.52,-23.77 31.51,-38.5 30.65,-52.6 64.92,-104.39 94.84,-157.55 -8.05,-2.1 -14.33,-11.71 -22.6,-17.66 z m 370.36,2.99 c 24.92,12.99 44.81,37.51 63.36,54.67 11.68,15.92 31.37,24.6 42.05,41.87 13.59,3.66 18.39,18.29 27.27,27.8 19.2,5.51 28.97,25.79 46.05,33.73 -9.34,-4.77 -6.48,11.97 -14.19,8.28 -26.11,-38.95 -70.15,-62.41 -99.95,-99.17 -21.73,-18.54 -47.32,-38 -65.09,-62.15 -8.03,2.6 -4.94,-3.19 0.5,-5.03 z m -165.92,63.31 c -0.8,0.01 -1.64,0.1 -2.52,0.3 -11.2,8.27 -12.54,24.24 -12.81,37.44 -1.34,75.34 -0.26,150.25 -11,225.12 -21.13,9.18 16.7,21.82 24.83,13.67 23.91,-84.29 6.13,-173.69 9.77,-260.25 2.8,-7.56 -0.6,-16.3 -8.27,-16.28 z m -0.17,8.22 c 7.04,6.49 2.98,23.62 1.8,34.08 -2.75,59.55 3.85,119.28 0.3,178.89 -8.16,-20.18 0.14,-49.63 -6.65,-73.91 -7.81,37.28 2.91,76.35 -0.49,114.11 -1.27,11.95 -23.01,6.54 -15.19,-4.91 5.1,-9.55 0.43,10.65 5.69,3.03 5.09,-78.4 6.93,-157.09 10.15,-235.56 -2.42,-6.02 0.26,-11.19 4.39,-15.73 z"
         id="path6"
         inkscape:connector-curvature="0" />
      <path
         transform="scale(0.8)"
         d="m 559.63,14.623 c -4.05,-0.188 -9.91,1.519 -12.72,0.527 -0.75,12.9 -8.32,26.1 -3.07,38.6 -12.01,51.03 -13.08,103.71 -22.37,155.07 7.68,4.14 6.68,-5.5 7.31,-8.85 13.98,-58.95 14.55,-121.34 34.71,-179.31 1.34,-4.597 -0.71,-5.89 -3.86,-6.037 z M 235.97,27.111 c -4.37,-0.064 -10.01,6.462 -14.06,8.151 l -0.12,1 c 7.07,6.375 15.7,11.526 19.32,21.226 -3.85,3.638 -7.01,-10.712 -11.02,-6.25 10.52,15.6 21.17,32.124 34.02,45.836 -0.41,-7.175 -9.95,-15.124 -8.29,-20.386 36.99,52.622 69.08,110.49 110.15,160.99 3.19,3.61 9.83,10.71 13.72,5.03 -53.34,-65.08 -96.66,-138.67 -139.33,-211.81 -1.15,-2.728 -2.67,-3.763 -4.39,-3.789 z m 712.91,140.84 c -76.19,48.62 -143.13,105.05 -219.47,153.95 -7.22,1.74 -3.8,10.29 2.05,11.5 60.2,-38.85 116.35,-85.35 178.79,-121.83 12.14,-7.36 22.06,-16.3 32.29,-26.22 6.18,5.19 13.92,-3.39 18.67,-6.9 -1.16,-5.55 -7.52,-8.73 -12.33,-10.5 z m -914.93,75.95 c -3.175,7.59 -10.299,12.19 -15.537,18.39 0.763,1.37 1.65,2.7 2.725,3.86 9.8,2.45 18.338,13.56 28.826,9.45 70.787,39.76 156.26,45.16 226.18,86.99 2.25,-3.05 3.97,-6.49 5.06,-10.12 -30.56,-4.55 -56.41,-22.57 -85.25,-32.13 -53.01,-27.41 -109.43,-48.9 -162,-76.44 z m 472.16,51.04 c -4.16,0.03 -8.33,0.24 -12.51,0.66 -10.24,5.59 -22.71,3.81 -34.01,4.86 -60.11,5.5 -104.92,57.23 -122.3,111.84 -15.57,46.23 -8.38,98.51 12.75,141.42 14.03,21.33 28.55,44.53 54.03,53.52 23.38,13.27 48.67,25.49 75.46,31.25 38.46,1.47 74.45,-13.14 108.59,-28.99 21.73,-24.79 38.63,-53.51 51.42,-83.72 16.85,-59.83 10.61,-131.49 -33.73,-177.93 -8.87,-3.3 -18.72,-8.4 -21.72,-18.11 4.57,0.77 8.9,2.55 13.23,4.14 6.15,0.2 13.73,7.61 18.68,2.5 -30.82,-24.24 -69.69,-41.68 -109.89,-41.44 z m -8.87,29.13 c 5.09,0.11 13.52,2.53 9.47,9.34 -13.9,-4.35 -21.11,10.84 -18.71,22.15 5.64,6.68 -6.79,14.21 -8.16,5.64 -1.8,-13.73 1.02,-32.65 16.44,-37.13 0.3,-0.01 0.62,-0.01 0.96,0 z m 62.1,4.92 c 13.9,0.09 28.45,9 30.36,23.58 -8.76,6.03 -18.21,-25.16 -27.34,-10.02 -11.63,6.54 -12.51,-11.6 -3.02,-13.56 z m 482.76,66.23 c -0.7,-0.04 -1.5,0.14 -2.6,0.58 -84.24,25.65 -168.19,53.03 -253.25,75.63 -1.51,0.98 -1.16,3.08 -1.19,4.64 0.28,1.28 0.55,2.57 0.84,3.86 3.13,5.98 12.4,-0.88 17.98,-0.05 10,-2.39 22.16,-2.24 29.63,-10.28 70.24,-12.18 137.62,-38.58 207.39,-54.6 2.2,-1.4 5.6,-2.51 5.7,-5.59 -1.5,-3.48 0.6,-13.97 -4.5,-14.19 z m -465.64,17.59 c 20.62,8.65 21.1,35.87 26.16,54.68 3.23,5.9 -1.81,20.63 -10.17,16.46 -11.2,-15.38 -14.9,-34.54 -20.55,-52.24 -1.84,-6.4 -3.59,-16.25 4.56,-18.9 z m -39.47,5.04 c 20.47,1.84 25.72,29.51 29.07,46.43 4.32,8.27 -0.73,34.3 -13.95,26.06 -3.91,-18.14 -12.69,-34.74 -17.07,-52.78 -3.63,-5.82 -7.6,-17.66 1.95,-19.71 z m -118.06,6.37 c 13.01,0.2 20.63,18.88 9.28,26.67 -21.31,15.43 -28.1,-19.98 -10.56,-26.63 0.43,-0.03 0.86,-0.04 1.28,-0.04 z m 41.01,22.44 c 17.39,0.12 10.12,35.31 -8.03,32.45 -19.34,-1.63 -5.38,-29.22 6.27,-32.35 0.61,-0.07 1.19,-0.1 1.76,-0.1 z m -54.99,24.94 c 11.56,-0.04 16.72,15.64 11.06,24.29 -6.79,4.58 -14.86,7.9 -23.02,8.9 -15.33,-8.85 -0.73,-29.59 11.96,-33.19 z m 53.21,51.18 c 14.17,-0.16 30.1,3.03 35.91,17.38 4.28,22.46 -14.33,-6.96 -25.83,-6.02 -14.94,35.23 15.19,82.68 56.06,76.9 2.4,-4.18 5.87,-2.84 9.55,-1.28 26.06,-5 51.61,-17.59 69.05,-38.12 7.06,6.9 -2.22,19.27 -9.5,24.26 -10.7,13.66 -28.41,20.46 -45.35,22.05 -22.44,3.51 -48.49,5.96 -67.9,-8.13 -26.44,-14.06 -31.99,-51.1 -17.95,-75.93 -13.85,0.61 -29.53,5.89 -35.31,19.55 -6.24,2.81 -7.92,-7.33 -3.94,-10.4 8.12,-8.75 15.94,-19.49 29.27,-20.01 1.92,-0.14 3.91,-0.23 5.94,-0.25 z m -205.99,10.15 c -0.19,0.01 -0.39,0.03 -0.61,0.08 -42.5,11.48 -82.97,28.79 -122.95,46.88 -33.934,12.12 -65.985,33.06 -103.2,32.66 -12.273,1.11 -2.06,15.85 -1.623,23.7 1.575,1.51 6.875,2.71 6.213,-0.8 -3.25,-0.88 -3.562,-6.05 -0.1,-6.76 42.575,-12.85 78.53,-40.73 121.34,-53.38 10.29,5.33 17.95,-8.4 28.15,-9.63 22.77,-13.77 48.25,-20.08 73.67,-26.52 0.42,-1.84 1.84,-6.33 -0.89,-6.23 z m 215.38,115.86 c 0.38,6.97 12.61,8.92 17.71,4.6 -5.74,-2.14 -11.58,-4.14 -17.71,-4.6 z m 245.15,10.42 c -5.44,1.84 -8.53,7.63 -0.5,5.03 17.77,24.15 43.36,43.61 65.09,62.15 29.8,36.76 73.84,60.22 99.95,99.17 7.71,3.69 4.85,-13.05 14.19,-8.28 -17.08,-7.94 -26.85,-28.22 -46.05,-33.73 -8.88,-9.51 -13.68,-24.14 -27.27,-27.8 -10.68,-17.27 -30.37,-25.95 -42.05,-41.87 -18.55,-17.16 -38.44,-41.68 -63.36,-54.67 z m -364.45,16.01 c -1.21,-0.04 -2.33,0.64 -3.01,2.48 -24.31,36.8 -44.75,76.59 -72.88,110.9 -20.42,22.92 -35.42,50.09 -56.08,72.83 2.18,5.16 10.59,4.68 14.07,9.56 2.61,0.54 4.36,-2.76 6.03,-4.4 32.7,-51.84 65.82,-103.82 97.77,-156.12 8.36,-7.53 5.56,-22.27 16.94,-26.94 5.08,-1.56 0.77,-8.19 -2.84,-8.31 z m 374.53,13.37 c 2.07,7.6 11.71,11.27 17.01,16.72 -3.24,-7.42 -10.88,-11.82 -17.01,-16.72 z m -176.17,42.15 c -4.13,4.54 -6.81,9.71 -4.39,15.73 -3.22,78.47 -5.06,157.16 -10.15,235.56 -5.26,7.62 -0.59,-12.58 -5.69,-3.03 -7.82,11.45 13.92,16.86 15.19,4.91 3.4,-37.76 -7.32,-76.83 0.49,-114.11 6.79,24.28 -1.51,53.73 6.65,73.91 3.55,-59.61 -3.05,-119.34 -0.3,-178.89 1.18,-10.46 5.24,-27.59 -1.8,-34.08 z"
         id="path8"
         inkscape:connector-curvature="0"
         style="fill:#fff7b8" />
    </g>
  </g>
</svg>
